<svg width="240" height="240" viewBox="0 0 240 240" fill="none" xmlns="http://www.w3.org/2000/svg">
<path fill-rule="evenodd" clip-rule="evenodd" d="M69.0706 35.1129C101.66 19.6236 138.762 19.4426 173.069 35.1129C182.795 93.1885 166.88 131.328 120.935 151.537C75.3302 133.822 56.643 92.3789 69.0706 35.1129Z" fill="#0D4B8C"/>
<path d="M69.4451 35.4114C57.1721 92.2603 75.4525 133.327 120.923 151.07C166.049 131.154 182.504 94.3902 172.683 35.4053C155.83 27.7461 138.303 23.8565 120.582 23.8565C102.849 23.8565 85.6464 27.7461 69.4451 35.4114ZM120.946 152L120.779 151.933C74.6896 134.033 56.1753 92.5126 68.6517 35.0208L68.6965 34.8153L68.8877 34.7258C85.2599 26.9466 102.651 23 120.582 23C138.498 23 156.215 26.9466 173.248 34.7217L173.454 34.8153L173.492 35.0391C178.456 64.6791 176.749 88.4439 168.274 107.695C159.641 127.297 144.214 141.761 121.107 151.929L120.946 152Z" fill="#0D4B8C"/>
<path fill-rule="evenodd" clip-rule="evenodd" d="M77.2937 40.5319C105.182 28.8672 132.688 27.8541 163.746 40.0233C172.489 90.4764 156.009 121.089 121.074 137.219C86.5478 126.917 66.6054 89.7908 77.2937 40.5319Z" fill="white"/>
<path d="M80.2714 43.0103C71.3936 86.8071 87.54 122.873 120.817 133.556C154.927 117.273 167.983 87.4723 160.69 42.518C146.836 37.298 133.733 34.7592 120.693 34.7592C107.291 34.7592 94.0498 37.4587 80.2714 43.0103ZM121.33 140.871L120.093 140.497C102.028 135.112 87.481 122.489 79.1322 104.955C70.4477 86.7156 68.6554 64.1855 73.9467 39.8022L74.323 38.0588L75.9749 37.3712C91.2018 31.0018 105.826 27.9076 120.693 27.9076C135.171 27.9076 149.662 30.8268 164.997 36.8342L166.791 37.538L167.12 39.4401C175.669 88.7682 160.659 122.713 122.508 140.328L121.33 140.871Z" fill="#8DD8F8"/>
<path d="M79.9419 101.259C87.8188 119.623 102.391 132.865 121.029 138.62C158.943 120.85 173.366 88.3009 165.098 39.1457C149.733 33.232 135.216 30.3514 120.752 30.3514C112.351 30.3514 103.819 31.3665 95.3926 33.3683C89.1594 34.8716 82.7656 36.9568 76.3656 39.5912C71.5951 62.2576 72.8279 83.563 79.9419 101.259ZM121.651 144.348L121.035 144.163C100.869 138.146 85.1538 123.377 76.7765 102.578C68.9892 84.3909 67.6262 62.0867 72.8361 38.0797L73.0273 37.207L73.8512 36.8592C80.8167 33.9501 87.7985 31.6533 94.5992 30.0361C103.408 27.9163 112.33 26.8401 121.119 26.8401C136.299 26.8401 151.507 29.9059 167.619 36.2183L168.512 36.5703L168.677 37.5203C177.744 89.8144 162.122 125.665 122.241 144.076L121.651 144.348Z" fill="#FFF200"/>
<path fill-rule="evenodd" clip-rule="evenodd" d="M113.303 99.9681H113.333C113.333 99.9803 113.333 99.9803 113.342 99.9803H113.358H113.37H113.382H113.413H113.427H113.441C113.457 99.9946 113.457 99.9946 113.468 99.9946H113.496H113.549H113.563C113.868 99.9946 114.115 99.9681 114.361 99.8929C114.597 99.8237 114.804 99.726 114.983 99.6019C115.162 99.4718 115.299 99.2866 115.408 99.0486C115.506 98.8086 115.551 98.54 115.551 98.2166V98.184V98.1576V98.1433V98.1169V98.0599V98.003C115.535 97.6693 115.465 97.3825 115.372 97.1404C115.274 96.9044 115.12 96.7315 114.943 96.6074C114.764 96.4772 114.556 96.3938 114.32 96.3226C114.088 96.2657 113.824 96.2372 113.549 96.2372H113.496H113.441H113.37H113.317L113.303 99.9681ZM113.303 104.572C113.342 104.596 113.382 104.627 113.441 104.641C113.48 104.655 113.512 104.682 113.549 104.696C113.592 104.712 113.632 104.712 113.691 104.728C113.73 104.743 113.761 104.753 113.799 104.771C113.84 104.783 113.868 104.783 113.921 104.796C113.962 104.812 113.993 104.824 114.033 104.838C114.07 104.855 114.115 104.855 114.172 104.855H114.279H114.334H114.361H114.422C114.422 104.855 114.446 104.855 114.458 104.838C114.641 104.824 114.79 104.796 114.955 104.728C115.107 104.671 115.246 104.584 115.382 104.47C115.516 104.354 115.632 104.23 115.728 104.075C115.823 103.933 115.874 103.78 115.919 103.595C115.933 103.569 115.933 103.538 115.945 103.512C115.945 103.483 115.945 103.459 115.96 103.428C115.96 103.394 115.96 103.372 115.974 103.327C115.974 103.3 115.974 103.27 115.986 103.229V103.172C115.986 103.158 115.986 103.144 115.998 103.129V103.091V103.042V102.989C115.998 102.975 115.998 102.959 116.017 102.95V102.906V102.863C116.017 102.706 115.998 102.562 115.986 102.409C115.96 102.267 115.919 102.131 115.874 101.988C115.838 101.846 115.766 101.701 115.699 101.577C115.632 101.447 115.535 101.337 115.439 101.223C115.341 101.126 115.246 101.026 115.12 100.938C115 100.869 114.873 100.814 114.749 100.774C114.625 100.729 114.487 100.688 114.351 100.658C114.212 100.646 114.07 100.629 113.936 100.617H113.921H113.868H113.824H113.783H113.761C113.742 100.617 113.73 100.617 113.712 100.601H113.671H113.661H113.622H113.604H113.58H113.549H113.523H113.468C113.457 100.617 113.457 100.617 113.441 100.617H113.382H113.358H113.303V104.572ZM114.574 95.6452L114.582 95.6574H114.623H114.652H114.664H114.682H114.692H114.764H114.833H114.873H114.914H114.955H114.971C115.311 95.6737 115.632 95.7164 115.933 95.8018C116.224 95.8853 116.511 95.9992 116.788 96.1558C117.062 96.3084 117.268 96.5179 117.402 96.7885C117.549 97.057 117.612 97.3968 117.612 97.8036V97.8199V97.8321V97.8484V97.8626C117.612 98.184 117.559 98.4851 117.461 98.7374C117.365 98.9917 117.213 99.2032 117.007 99.3721C116.802 99.5592 116.578 99.7159 116.348 99.842C116.11 99.9803 115.852 100.106 115.587 100.206C115.945 100.277 116.277 100.363 116.578 100.475C116.885 100.601 117.16 100.743 117.402 100.926C117.656 101.111 117.85 101.351 117.97 101.646C118.094 101.948 118.153 102.31 118.153 102.723V102.733V102.751V102.763V102.792V102.82V102.849C118.14 103.072 118.11 103.286 118.053 103.5C117.984 103.709 117.902 103.907 117.805 104.09C117.709 104.275 117.587 104.446 117.433 104.596C117.282 104.753 117.107 104.895 116.91 105.011C116.757 105.107 116.609 105.182 116.456 105.237C116.308 105.304 116.137 105.347 115.974 105.361C115.889 105.377 115.807 105.377 115.728 105.39C115.644 105.404 115.561 105.404 115.478 105.416C115.382 105.432 115.299 105.432 115.215 105.432H114.971H114.896H114.845H114.79H114.733H109.942V104.824L111.295 104.572V96.465L109.942 96.225V95.6452H114.574Z" fill="#0D4B8C"/>
<path fill-rule="evenodd" clip-rule="evenodd" d="M119.374 104.936C119.364 104.743 119.364 104.545 119.364 104.344C119.351 104.161 119.351 103.964 119.335 103.78C119.321 103.593 119.321 103.394 119.307 103.201C119.294 103.018 119.266 102.82 119.254 102.637L119.736 102.45C119.762 102.621 119.803 102.792 119.848 102.95C119.888 103.103 119.927 103.27 119.982 103.428C120.023 103.583 120.094 103.721 120.175 103.866C120.244 104.004 120.338 104.132 120.454 104.261C120.548 104.385 120.655 104.486 120.78 104.57C120.906 104.671 121.032 104.743 121.166 104.796C121.304 104.867 121.447 104.912 121.595 104.936C121.748 104.966 121.882 104.983 122.035 104.983C122.116 104.977 122.199 104.983 122.281 104.966C122.366 104.952 122.45 104.952 122.531 104.936C122.572 104.926 122.612 104.926 122.657 104.912C122.698 104.895 122.739 104.895 122.777 104.883C122.818 104.867 122.848 104.855 122.901 104.824C122.942 104.812 122.97 104.796 123.011 104.783C123.137 104.743 123.261 104.671 123.357 104.57C123.451 104.486 123.55 104.385 123.621 104.261C123.689 104.132 123.756 104.02 123.796 103.876C123.839 103.75 123.866 103.624 123.88 103.5V103.467V103.459V103.441V103.428V103.394V103.372V103.17C123.866 103.113 123.853 103.062 123.839 103.003C123.825 102.95 123.813 102.889 123.796 102.839C123.768 102.778 123.741 102.723 123.715 102.664C123.63 102.509 123.534 102.369 123.428 102.24C123.312 102.11 123.192 102.015 123.052 101.929C122.901 101.846 122.761 101.76 122.629 101.689C122.476 101.618 122.322 101.563 122.173 101.506C122.159 101.492 122.13 101.492 122.116 101.48C122.102 101.48 122.09 101.48 122.075 101.465C122.061 101.465 122.035 101.465 122.02 101.447C122.02 101.447 121.98 101.447 121.963 101.435C121.951 101.421 121.925 101.421 121.909 101.406C121.896 101.406 121.882 101.406 121.868 101.396C121.856 101.396 121.839 101.396 121.827 101.378C121.817 101.378 121.789 101.378 121.77 101.366C121.758 101.351 121.73 101.351 121.717 101.337C121.717 101.337 121.675 101.337 121.66 101.325C121.65 101.307 121.622 101.309 121.605 101.295C121.595 101.295 121.565 101.295 121.555 101.284C121.319 101.179 121.097 101.079 120.889 100.955C120.684 100.845 120.476 100.717 120.273 100.56C120.063 100.403 119.899 100.235 119.762 100.023C119.624 99.8217 119.516 99.602 119.431 99.3456C119.423 99.2724 119.404 99.1931 119.392 99.1056C119.374 99.0222 119.351 98.9367 119.335 98.8513C119.321 98.7679 119.321 98.6804 119.307 98.599C119.294 98.5116 119.294 98.4282 119.294 98.3285V98.2715V98.243V98.184V98.1311C119.294 98.0599 119.294 98.003 119.307 97.9318C119.321 97.8769 119.321 97.8199 119.335 97.7487C119.351 97.6917 119.364 97.6348 119.374 97.5676C119.392 97.5107 119.423 97.4517 119.431 97.3825C119.473 97.2544 119.516 97.1282 119.571 97.0143C119.624 96.9045 119.695 96.7885 119.762 96.6766C119.915 96.4366 120.094 96.2372 120.285 96.0826C120.476 95.928 120.684 95.8019 120.918 95.7164C121.14 95.6289 121.376 95.5618 121.605 95.517C121.839 95.4764 122.09 95.4479 122.35 95.4479C122.381 95.4438 122.407 95.4479 122.45 95.4479C122.476 95.4438 122.501 95.4479 122.541 95.4479C122.572 95.4621 122.598 95.4621 122.643 95.4621H122.739H122.93C123.001 95.4764 123.052 95.4764 123.123 95.4886C123.272 95.5069 123.414 95.5333 123.562 95.5618C123.701 95.5862 123.839 95.6147 123.992 95.6574C124.13 95.7022 124.266 95.7286 124.405 95.7571C124.541 95.8019 124.677 95.8283 124.816 95.869V96.2657V96.6603C124.816 96.7885 124.816 96.9309 124.83 97.057C124.83 97.1852 124.83 97.3256 124.846 97.4517V97.5493C124.846 97.5941 124.846 97.6205 124.856 97.649V97.7487V97.8463V97.9481C124.856 97.9887 124.856 98.0193 124.871 98.0498V98.1433V98.243L124.417 98.3142C124.405 98.1739 124.376 98.0294 124.35 97.8769C124.319 97.7365 124.279 97.5941 124.242 97.4395C124.193 97.2991 124.142 97.1587 124.059 97.0265C123.977 96.9045 123.88 96.7885 123.768 96.6766C123.689 96.5912 123.591 96.5179 123.491 96.4508C123.398 96.3796 123.284 96.3226 123.164 96.2779C123.093 96.2494 123.042 96.225 122.983 96.2087C122.916 96.1945 122.863 96.1843 122.804 96.168C122.739 96.1518 122.68 96.1375 122.629 96.1253C122.555 96.1111 122.501 96.1111 122.437 96.0968H122.407H122.381H122.35H122.322H122.13C122.061 96.1111 122.008 96.1253 121.937 96.1375C121.868 96.1518 121.817 96.168 121.758 96.1843C121.693 96.1945 121.636 96.225 121.581 96.2372C121.426 96.3084 121.304 96.3796 121.197 96.465C121.074 96.5464 120.977 96.6481 120.906 96.76C120.834 96.8739 120.78 96.9858 120.739 97.0977C120.696 97.2137 120.684 97.3398 120.684 97.468V97.4964V97.5493V97.5819C120.684 97.5941 120.684 97.6205 120.696 97.6348C120.714 97.7609 120.753 97.8911 120.794 98.0193C120.834 98.1433 120.906 98.2715 121.003 98.3997C121.097 98.5258 121.207 98.6234 121.331 98.7231C121.455 98.8228 121.605 98.9205 121.77 98.9917C121.789 99.0059 121.817 99.0059 121.827 99.0222C121.839 99.0323 121.868 99.0323 121.868 99.0323C121.896 99.0486 121.925 99.0486 121.937 99.0608C121.951 99.0771 121.98 99.0771 121.992 99.0913C122.035 99.1056 122.075 99.1056 122.13 99.1178C122.173 99.1341 122.199 99.1625 122.242 99.1747C122.281 99.189 122.311 99.1931 122.35 99.2032C122.393 99.2195 122.419 99.2459 122.46 99.2602C122.476 99.2724 122.501 99.2724 122.513 99.2866C122.531 99.3009 122.555 99.3009 122.555 99.3009C122.586 99.3192 122.612 99.3192 122.643 99.3314C122.657 99.3456 122.68 99.3456 122.698 99.3599C122.96 99.4596 123.221 99.5735 123.483 99.6955C123.741 99.8217 123.992 99.9681 124.224 100.123C124.462 100.277 124.665 100.456 124.846 100.676C125.023 100.9 125.161 101.154 125.273 101.447C125.286 101.518 125.31 101.577 125.345 101.634C125.355 101.701 125.367 101.76 125.381 101.83C125.397 101.901 125.408 101.958 125.422 102.029C125.422 102.1 125.422 102.155 125.434 102.226V102.257C125.434 102.267 125.434 102.281 125.448 102.297V102.338V102.369V102.422V102.491V102.521V102.537V102.562V102.592V102.621V102.637V102.664V102.692C125.434 102.849 125.422 102.989 125.397 103.129C125.367 103.27 125.326 103.412 125.286 103.553C125.243 103.695 125.192 103.835 125.121 103.964C125.054 104.09 124.982 104.22 124.897 104.344C124.753 104.584 124.571 104.783 124.36 104.936C124.154 105.107 123.921 105.249 123.66 105.345C123.398 105.432 123.137 105.504 122.873 105.546C122.612 105.599 122.338 105.634 122.061 105.634H122.008H121.963C121.951 105.615 121.925 105.615 121.909 105.615H121.856H121.758H121.65C121.447 105.599 121.249 105.573 121.044 105.532C120.834 105.487 120.643 105.447 120.454 105.404C120.244 105.345 120.063 105.276 119.888 105.204C119.705 105.137 119.53 105.052 119.374 104.952V104.936Z" fill="#0D4B8C"/>
<path fill-rule="evenodd" clip-rule="evenodd" d="M126.936 104.936C126.926 104.743 126.922 104.545 126.922 104.344C126.909 104.161 126.907 103.964 126.899 103.78C126.881 103.593 126.881 103.394 126.869 103.201C126.857 103.018 126.828 102.82 126.814 102.637L127.296 102.45C127.326 102.621 127.367 102.792 127.406 102.95C127.448 103.103 127.487 103.27 127.542 103.428C127.587 103.583 127.652 103.721 127.737 103.866C127.809 104.004 127.9 104.132 128.012 104.261C128.108 104.385 128.217 104.486 128.342 104.57C128.466 104.671 128.59 104.743 128.728 104.796C128.864 104.867 129.003 104.912 129.153 104.936C129.306 104.966 129.44 104.983 129.595 104.983C129.674 104.977 129.762 104.983 129.843 104.966C129.924 104.952 130.008 104.952 130.089 104.936C130.134 104.926 130.172 104.926 130.215 104.912C130.256 104.895 130.297 104.895 130.335 104.883C130.378 104.867 130.404 104.855 130.465 104.824C130.506 104.812 130.533 104.796 130.569 104.783C130.697 104.743 130.819 104.671 130.917 104.57C131.013 104.486 131.106 104.385 131.177 104.261C131.245 104.132 131.318 104.02 131.356 103.876C131.397 103.75 131.428 103.624 131.438 103.5V103.467V103.459V103.441V103.428V103.394V103.372V103.17C131.428 103.113 131.415 103.062 131.397 103.003C131.385 102.95 131.371 102.889 131.356 102.839C131.33 102.778 131.299 102.723 131.275 102.664C131.188 102.509 131.096 102.369 130.986 102.24C130.874 102.11 130.756 102.015 130.614 101.929C130.465 101.846 130.323 101.76 130.185 101.689C130.034 101.618 129.884 101.563 129.731 101.506C129.721 101.492 129.69 101.492 129.674 101.48C129.674 101.48 129.654 101.48 129.633 101.465C129.633 101.465 129.595 101.465 129.578 101.447C129.568 101.447 129.542 101.447 129.526 101.435C129.515 101.421 129.485 101.421 129.471 101.406C129.471 101.406 129.44 101.406 129.428 101.396C129.428 101.396 129.403 101.396 129.387 101.378C129.387 101.378 129.347 101.378 129.332 101.366C129.32 101.351 129.294 101.351 129.279 101.337C129.265 101.337 129.235 101.337 129.224 101.325C129.21 101.307 129.18 101.309 129.167 101.295C129.153 101.295 129.127 101.295 129.113 101.284C128.877 101.179 128.661 101.079 128.453 100.955C128.248 100.845 128.04 100.717 127.831 100.56C127.628 100.403 127.461 100.235 127.326 100.023C127.182 99.8217 127.074 99.602 126.991 99.3456C126.977 99.2724 126.962 99.1931 126.95 99.1056C126.936 99.0222 126.907 98.9367 126.899 98.8513C126.881 98.7679 126.881 98.6804 126.869 98.599C126.857 98.5116 126.857 98.4282 126.857 98.3285V98.2715V98.243V98.184V98.1311C126.857 98.0599 126.857 98.003 126.869 97.9318C126.881 97.8769 126.881 97.8199 126.899 97.7487C126.909 97.6917 126.922 97.6348 126.936 97.5676C126.95 97.5107 126.977 97.4517 126.991 97.3825C127.033 97.2544 127.074 97.1282 127.129 97.0143C127.182 96.9045 127.257 96.7885 127.326 96.6766C127.473 96.4366 127.652 96.2372 127.849 96.0826C128.04 95.928 128.244 95.8019 128.478 95.7164C128.7 95.6289 128.936 95.5618 129.167 95.517C129.403 95.4764 129.654 95.4479 129.914 95.4479C129.936 95.4438 129.965 95.4479 130.008 95.4479C130.034 95.4438 130.063 95.4479 130.105 95.4479C130.134 95.4621 130.16 95.4621 130.203 95.4621H130.297H130.494C130.559 95.4764 130.614 95.4764 130.681 95.4886C130.836 95.5069 130.972 95.5333 131.124 95.5618C131.263 95.5862 131.397 95.6147 131.55 95.6574C131.688 95.7022 131.826 95.7286 131.963 95.7571C132.101 95.8019 132.239 95.8283 132.378 95.869V96.2657V96.6603C132.378 96.7885 132.378 96.9309 132.388 97.057C132.388 97.1852 132.388 97.3256 132.406 97.4517V97.5493C132.406 97.5941 132.406 97.6205 132.418 97.649V97.7487V97.8463V97.9481C132.418 97.9887 132.418 98.0193 132.433 98.0498V98.1433V98.243L131.979 98.3142C131.963 98.1739 131.936 98.0294 131.91 97.8769C131.881 97.7365 131.839 97.5941 131.798 97.4395C131.757 97.2991 131.7 97.1587 131.619 97.0265C131.539 96.9045 131.438 96.7885 131.33 96.6766C131.245 96.5912 131.151 96.5179 131.049 96.4508C130.958 96.3796 130.85 96.3226 130.722 96.2779C130.655 96.2494 130.598 96.225 130.543 96.2087C130.476 96.1945 130.419 96.1843 130.364 96.168C130.297 96.1518 130.244 96.1375 130.185 96.1253C130.115 96.1111 130.063 96.1111 129.993 96.0968H129.981H129.936H129.914H129.896H129.69C129.623 96.1111 129.568 96.1253 129.499 96.1375C129.428 96.1518 129.373 96.168 129.32 96.1843C129.253 96.1945 129.194 96.225 129.141 96.2372C128.988 96.3084 128.864 96.3796 128.755 96.465C128.63 96.5464 128.535 96.6481 128.466 96.76C128.394 96.8739 128.342 96.9858 128.301 97.0977C128.258 97.2137 128.244 97.3398 128.244 97.468C128.248 97.4781 128.244 97.4781 128.244 97.4964C128.248 97.5107 128.244 97.5392 128.244 97.5493C128.248 97.5676 128.244 97.5676 128.244 97.5819C128.248 97.5941 128.244 97.6205 128.258 97.6348C128.274 97.7609 128.315 97.8911 128.356 98.0193C128.394 98.1433 128.466 98.2715 128.561 98.3997C128.661 98.5258 128.769 98.6234 128.891 98.7231C129.015 98.8228 129.167 98.9205 129.332 98.9917C129.347 99.0059 129.373 99.0059 129.387 99.0222C129.403 99.0323 129.428 99.0323 129.44 99.0323C129.456 99.0486 129.485 99.0486 129.499 99.0608C129.515 99.0771 129.542 99.0771 129.552 99.0913C129.595 99.1056 129.633 99.1056 129.69 99.1178C129.731 99.1341 129.762 99.1625 129.802 99.1747C129.843 99.189 129.869 99.1931 129.914 99.2032C129.953 99.2195 129.981 99.2459 130.022 99.2602C130.034 99.2724 130.063 99.2724 130.077 99.2866C130.089 99.3009 130.115 99.3009 130.134 99.3009C130.144 99.3192 130.172 99.3192 130.203 99.3314C130.215 99.3456 130.244 99.3456 130.252 99.3599C130.516 99.4596 130.779 99.5735 131.039 99.6955C131.299 99.8217 131.55 99.9681 131.784 100.123C132.02 100.277 132.225 100.456 132.406 100.676C132.583 100.9 132.719 101.154 132.831 101.447C132.843 101.518 132.872 101.577 132.9 101.634C132.915 101.701 132.929 101.76 132.941 101.83C132.959 101.901 132.968 101.958 132.98 102.029C132.98 102.1 132.98 102.155 132.998 102.226V102.257C132.998 102.267 132.998 102.281 133.01 102.297V102.338V102.369V102.422V102.491V102.521V102.537V102.562V102.592V102.621V102.637V102.664V102.692C132.998 102.849 132.98 102.989 132.959 103.129C132.929 103.27 132.884 103.412 132.843 103.553C132.803 103.695 132.748 103.835 132.679 103.964C132.61 104.09 132.54 104.22 132.459 104.344C132.311 104.584 132.127 104.783 131.922 104.936C131.716 105.107 131.485 105.249 131.218 105.345C130.958 105.432 130.697 105.504 130.435 105.546C130.172 105.599 129.896 105.634 129.623 105.634H129.568H129.526C129.515 105.615 129.485 105.615 129.471 105.615H129.418H129.32H129.21C129.003 105.599 128.811 105.573 128.604 105.532C128.394 105.487 128.203 105.447 128.012 105.404C127.809 105.345 127.628 105.276 127.448 105.204C127.267 105.137 127.09 105.052 126.936 104.952V104.936Z" fill="#0D4B8C"/>
<path fill-rule="evenodd" clip-rule="evenodd" d="M90.5651 47.33L88.6529 45.9446L86.7426 47.33L87.475 45.0841L85.5627 43.6967H87.9266L88.6529 41.4447L89.3873 43.6967H91.7471L89.8348 45.0841L90.5651 47.33Z" fill="#0D4B8C"/>
<path d="M88.6532 45.4143L89.7538 46.2138L89.3347 44.9179L90.4333 44.1225H89.0723L88.6532 42.8307L88.2382 44.1225H86.8773L87.9778 44.9179L87.5567 46.2138L88.6532 45.4143ZM85.9273 48.4515L86.9688 45.2475L84.2449 43.2681H87.6178L88.6532 40.062L89.7009 43.2681H93.0657L90.3417 45.2475L91.3772 48.4515L88.6532 46.4721L85.9273 48.4515Z" fill="#0D4B8C"/>
<path fill-rule="evenodd" clip-rule="evenodd" d="M106.895 44.4232L104.982 43.0358L103.07 44.4232L103.802 42.1773L101.888 40.7879H104.254L104.982 38.542L105.715 40.7879H108.079L106.166 42.1773L106.895 44.4232Z" fill="#0D4B8C"/>
<path d="M103.205 41.2157L104.305 42.0152L103.886 43.307L104.983 42.5075L106.083 43.307L105.662 42.0152L106.759 41.2157H105.402L104.983 39.9239L104.564 41.2157H103.205ZM107.709 45.5467L104.983 43.5653L102.259 45.5467L103.296 42.3407L100.572 40.3613H103.941L104.983 37.1552L106.024 40.3613H109.393L106.669 42.3407L107.709 45.5467Z" fill="#0D4B8C"/>
<path fill-rule="evenodd" clip-rule="evenodd" d="M123.034 43.8861L121.121 42.4967L119.209 43.8861L119.939 41.6382L118.029 40.2528H120.393L121.121 38.0008L121.856 40.2528H124.214L122.301 41.6382L123.034 43.8861Z" fill="#0D4B8C"/>
<path d="M121.122 41.9686L122.218 42.764L121.799 41.4742L122.896 40.6768H121.543L121.122 39.387L120.705 40.6768H119.344L120.444 41.4742L120.025 42.764L121.122 41.9686ZM118.402 45.0038L119.437 41.8018L116.709 39.8203H120.082L121.118 36.6143L122.163 39.8203H125.534L122.808 41.8018L123.85 45.0038L121.122 43.0264L118.402 45.0038Z" fill="#0D4B8C"/>
<path fill-rule="evenodd" clip-rule="evenodd" d="M140.593 44.4232L138.683 43.0358L136.766 44.4232L137.499 42.1773L135.589 40.7879H137.952L138.683 38.542L139.411 40.7879H141.775L139.865 42.1773L140.593 44.4232Z" fill="#0D4B8C"/>
<path d="M136.903 41.2157L138.002 42.0152L137.585 43.307L138.683 42.5075L139.776 43.307L139.361 42.0152L140.457 41.2157H139.1L138.683 39.9239L138.262 41.2157H136.903ZM141.407 45.5467L138.683 43.5653L135.955 45.5467L136.995 42.3407L134.271 40.3613H137.64L138.683 37.1552L139.723 40.3613H143.092L140.366 42.3407L141.407 45.5467Z" fill="#0D4B8C"/>
<path fill-rule="evenodd" clip-rule="evenodd" d="M157.071 47.1286L155.159 45.7412L153.247 47.1286L153.975 44.8807L152.067 43.4913H154.427L155.159 41.2433L155.887 43.4913H158.253L156.341 44.8807L157.071 47.1286Z" fill="#0D4B8C"/>
<path d="M153.382 43.9199L154.48 44.7173L154.059 46.0071L155.16 45.2096L156.254 46.0071L155.837 44.7173L156.938 43.9199H155.581L155.16 42.6301L154.739 43.9199H153.382ZM157.884 48.2469L155.16 46.2675L152.432 48.2469L153.473 45.0428L150.751 43.0634H154.12L155.16 39.8574L156.201 43.0634H159.568L156.846 45.0428L157.884 48.2469Z" fill="#0D4B8C"/>
<path d="M126.377 57.0178L121.535 48.3516L116.378 57.0178H126.377ZM103.55 58.7673L108.263 67.2097L113.296 58.7673H103.55ZM129.361 58.7673L134.734 68.3876L140.464 58.7673H129.361ZM102.488 80.3311H113.587L108.221 70.7128L102.488 80.3311ZM115.595 80.3311H127.618L133.7 70.1208L127.357 58.7673H115.335L109.252 68.9755L115.595 80.3311ZM129.652 80.3311H139.402L134.683 71.8866L129.652 80.3311ZM116.571 82.0785L121.413 90.7468L126.574 82.0785H116.571ZM121.364 94.2499L114.566 82.0785H99.4058L107.232 68.947L100.567 57.0178H114.34L121.588 44.8485L128.383 57.0178H143.546L135.72 70.1534L142.385 82.0785H128.612L121.364 94.2499Z" fill="#0D4B8C"/>
<path fill-rule="evenodd" clip-rule="evenodd" d="M127.953 64.1902C127.41 64.0722 126.916 63.9847 126.456 63.9237C125.998 63.8668 125.583 63.8403 125.209 63.8403C124.302 63.8403 123.61 64.0234 123.142 64.3957C122.77 64.6886 122.581 65.1931 122.581 65.9072V72.7791C122.922 72.419 123.282 72.1688 123.667 72.0386C124.051 71.9043 124.58 71.8331 125.254 71.8331C125.701 71.8331 126.149 71.8575 126.598 71.9125C127.05 71.9633 127.502 72.0447 127.953 72.1505V64.1902ZM115.786 72.1383C116.35 72.0325 116.86 71.9572 117.298 71.9084C117.741 71.8575 118.115 71.8331 118.425 71.8331C119.692 71.8331 120.599 72.1403 121.157 72.7506V65.8929C121.157 65.2053 120.939 64.6886 120.514 64.3509C120.085 64.0071 119.442 63.8403 118.581 63.8403C118.136 63.8403 117.682 63.8688 117.22 63.9319C116.754 63.9908 116.274 64.0824 115.786 64.2024V72.1383ZM128.822 73.9285L128.12 72.5573C127.548 72.4353 127.017 72.3437 126.533 72.2868C126.045 72.2258 125.595 72.1952 125.195 72.1952C123.464 72.1952 122.597 72.773 122.597 73.9285C122.959 73.8735 123.234 73.723 123.421 73.4952L128.822 73.9285ZM114.978 73.9285L120.361 73.5033C120.514 73.7006 120.778 73.8451 121.148 73.9285C121.081 73.31 120.843 72.8666 120.428 72.6001C120.015 72.3295 119.375 72.1952 118.494 72.1952C118.091 72.1952 117.649 72.2258 117.18 72.2807C116.71 72.3417 116.209 72.421 115.678 72.537L114.978 73.9285ZM128.319 64.6154V72.1871L129.035 73.5623V65.9885L128.319 64.6154ZM115.237 65.9072V73.5969L115.959 72.1871V64.5849L115.237 65.9072ZM129.422 74.9029V65.2867L128.498 65.2358L129.404 65.8339V74.2987L122.963 73.9285C122.68 74.1706 122.312 74.2947 121.871 74.2947C121.435 74.2947 121.077 74.1706 120.799 73.9285L114.875 74.2987V65.8339L115.143 65.3111L114.331 65.3538V74.9029L120.589 74.4391C120.835 74.5734 121.073 74.671 121.297 74.7381C121.525 74.8032 121.74 74.8358 121.954 74.8358C122.151 74.8358 122.353 74.8032 122.56 74.7381C122.762 74.671 122.977 74.5734 123.201 74.4391L129.422 74.9029ZM129.243 75.2915L123.309 74.8053C123.071 74.9355 122.841 75.0351 122.617 75.0982C122.389 75.1653 122.17 75.1999 121.96 75.1999C121.747 75.1999 121.509 75.1653 121.264 75.0982C121.014 75.0351 120.754 74.9355 120.469 74.8053L113.969 75.2915V65.0426L115.343 64.9694L115.876 63.9339C116.449 63.7813 117 63.6654 117.517 63.5901C118.032 63.5128 118.52 63.4721 118.97 63.4721C119.757 63.4721 120.373 63.5779 120.817 63.7813C121.26 63.9847 121.551 64.532 121.806 65.0141C122.039 64.5401 122.442 63.9949 122.912 63.7894C123.376 63.5799 124.021 63.4721 124.835 63.4721C125.254 63.4721 125.709 63.5128 126.21 63.5901C126.708 63.6654 127.249 63.7813 127.837 63.9339L128.332 64.89L129.243 64.9694V75.2915Z" fill="#0D4B8C"/>
<path d="M76.5487 39.6916C64.4099 85.6386 83.6484 128.186 121.377 138.824C159.309 121.233 173.622 88.6311 165.123 39.1647C149.837 33.2062 135.414 30.3113 121.033 30.3113C106.274 30.3113 91.7206 33.3811 76.5487 39.6916ZM121.464 139.932L121.283 139.884C102.936 134.765 88.1382 121.731 79.6083 103.17C71.0133 84.4628 69.5954 61.7354 75.6088 39.1748L75.676 38.9267L75.9119 38.829C91.2995 32.3924 106.056 29.2657 121.033 29.2657C135.629 29.2657 150.266 32.2216 165.778 38.3001L166.048 38.4079L166.105 38.6947C170.518 64.1644 168.776 85.6732 160.936 102.621C153.478 118.733 140.257 131.258 121.641 139.853L121.464 139.932Z" fill="white"/>
<path d="M79.0791 123.142L77.4313 122.664C78.5583 118.774 79.8644 115.615 81.3067 113.272L82.7673 114.165C81.4044 116.38 80.1614 119.401 79.0791 123.142Z" fill="white"/>
<path fill-rule="evenodd" clip-rule="evenodd" d="M120.394 114.797C128.521 114.537 140.137 112.108 155.241 107.504C156.958 108.902 158.395 111.062 159.56 113.986C171.359 110.226 182.928 111.286 189.684 118.713C185.093 118.309 181.982 118.915 179.688 120.469C187.927 123.443 189.347 130.767 188.873 129.251C178.245 124.609 166.406 125.734 153.351 132.63C149.977 133.302 148.695 131.867 151.057 130.059C155.376 127.63 166.589 125.199 162.941 122.77C158.887 122.632 135.926 131.953 120.394 131.005C104.862 131.953 81.9043 122.632 77.8499 122.77C74.2024 125.195 85.4155 127.63 89.7344 130.059C92.0922 131.867 90.8146 133.302 87.4376 132.63C74.3855 125.734 62.5437 124.609 51.9165 129.251C51.4445 130.767 52.8604 123.443 61.1034 120.469C58.8087 118.913 55.7003 118.313 51.1068 118.713C57.8628 111.286 69.4299 110.226 81.2248 113.986C82.3966 111.062 83.8349 108.902 85.5478 107.504C100.657 112.108 112.266 114.537 120.394 114.797Z" fill="#0D4B8C"/>
<path d="M151.527 130.776C150.856 131.301 150.706 131.659 150.706 131.747C150.736 131.765 151.045 131.94 151.802 131.94C152.178 131.94 152.604 131.895 153.061 131.81C160.91 127.682 168.443 125.593 175.457 125.593C179.505 125.593 183.462 126.291 187.236 127.674C186.137 125.758 183.828 122.873 179.4 121.276L177.819 120.704L179.204 119.761C181.289 118.345 183.956 117.698 187.453 117.738C183.637 114.455 178.433 112.728 172.273 112.728C168.331 112.728 164.142 113.422 159.823 114.805L159.065 115.043L158.768 114.305C157.738 111.731 156.485 109.764 155.039 108.462C140.152 112.974 128.505 115.395 120.421 115.651C112.288 115.395 100.643 112.974 85.7458 108.462C84.3015 109.77 83.0504 111.731 82.023 114.305L81.726 115.043L80.9652 114.805C76.6484 113.422 72.4577 112.728 68.5172 112.728C62.3532 112.728 57.1535 114.455 53.3351 117.743C56.8301 117.69 59.5011 118.349 61.5843 119.761L62.9717 120.707L61.3951 121.276C56.9643 122.873 54.6554 125.754 53.5569 127.67C57.3326 126.291 61.2832 125.593 65.3376 125.593C72.3478 125.593 79.8768 127.682 87.7273 131.81C88.187 131.895 88.6122 131.94 88.9845 131.94C89.7412 131.94 90.0504 131.765 90.0993 131.702C90.085 131.659 89.9345 131.301 89.2632 130.776C87.947 130.048 85.9147 129.285 83.9434 128.549C79.3255 126.824 76.4856 125.68 76.2863 123.951C76.2293 123.455 76.3737 122.723 77.3767 122.057L77.5781 121.919L77.9381 121.909C79.4537 121.909 82.7452 122.863 87.296 124.181C95.594 126.586 108.138 130.215 118.091 130.215C118.869 130.215 119.623 130.195 120.343 130.152L120.394 130.148L120.447 130.152C121.165 130.195 121.922 130.215 122.697 130.215C132.653 130.215 145.197 126.586 153.497 124.181C158.047 122.863 161.335 121.909 162.848 121.909L163.211 121.919L163.414 122.057C164.417 122.723 164.559 123.455 164.502 123.951C164.305 125.68 161.461 126.828 156.845 128.549C154.876 129.285 152.84 130.048 151.527 130.776ZM151.802 133.655C149.837 133.655 149.253 132.788 149.078 132.274C148.899 131.747 148.85 130.671 150.533 129.381L150.634 129.314C152.06 128.512 154.186 127.717 156.245 126.948C158.611 126.063 162.566 124.584 162.802 123.756C162.789 123.756 162.759 123.709 162.665 123.634C161.186 123.734 157.826 124.708 153.975 125.825C145.577 128.256 132.899 131.928 122.699 131.93H122.697C121.904 131.93 121.129 131.909 120.394 131.863C119.662 131.909 118.883 131.93 118.091 131.93C107.895 131.93 95.2135 128.256 86.8199 125.825C82.9222 124.696 79.529 123.715 78.1294 123.63C78.0053 123.732 77.9829 123.791 77.9829 123.795C78.1924 124.574 82.1675 126.059 84.5436 126.948C86.6043 127.717 88.7261 128.512 90.1562 129.314L90.2559 129.381C91.9403 130.671 91.8874 131.747 91.7104 132.274C91.5335 132.788 90.9516 133.655 88.9845 133.655C88.4677 133.655 87.89 133.592 87.2736 133.466L87.0397 133.382C79.3988 129.35 72.0976 127.306 65.3376 127.306C60.917 127.306 56.6205 128.179 52.5601 129.906C52.4319 130.111 52.2142 130.306 51.844 130.313L51.1238 130.315L50.9957 129.603C50.9672 129.462 51.0363 129.116 51.2133 128.624V128.62C51.8989 126.736 54.1977 122.747 59.1329 120.369C57.1352 119.523 54.5822 119.266 51.1828 119.569L49 119.761L50.4728 118.141C54.7124 113.479 60.9475 111.015 68.5172 111.015C72.4048 111.015 76.5141 111.664 80.7373 112.937C81.903 110.252 83.3372 108.204 85.0053 106.841L85.3573 106.55L85.7947 106.688C100.763 111.245 112.412 113.684 120.421 113.942C128.381 113.684 140.027 111.245 154.992 106.688L155.427 106.554L155.781 106.841C157.449 108.204 158.881 110.25 160.053 112.937C164.274 111.664 168.382 111.015 172.273 111.015C179.839 111.015 186.078 113.479 190.318 118.141L191.791 119.761L189.606 119.569C186.215 119.266 183.664 119.518 181.662 120.365C186.748 122.79 188.888 126.761 189.555 128.614L189.573 128.62L189.722 129.09L189.707 129.094C189.785 129.356 189.807 129.533 189.797 129.594L189.675 130.302L188.959 130.313H188.951C188.574 130.313 188.359 130.111 188.229 129.906C184.17 128.179 179.874 127.306 175.457 127.306C168.691 127.306 161.39 129.35 153.751 133.382L153.519 133.466C152.901 133.592 152.323 133.655 151.802 133.655Z" fill="white"/>
<path fill-rule="evenodd" clip-rule="evenodd" d="M112.772 117.727L112.05 124.613C112.021 124.908 112.009 125.087 112.021 125.158C112.036 125.262 112.078 125.333 112.133 125.39C112.2 125.437 112.326 125.475 112.505 125.496L113.12 125.563L112.992 126.788L109.192 126.385L109.32 125.162L109.944 125.225C110.168 125.25 110.317 125.237 110.373 125.205C110.443 125.172 110.493 125.113 110.538 125.026C110.575 124.942 110.614 124.763 110.644 124.464L111.157 119.564L109.922 119.433L110.048 118.211C110.406 118.195 110.683 118.174 110.876 118.14C111.177 118.081 111.488 118.007 111.816 117.902C112.005 117.841 112.18 117.767 112.341 117.678L112.772 117.727Z" fill="white"/>
<path fill-rule="evenodd" clip-rule="evenodd" d="M117.637 122.702C117.853 122.71 118.048 122.651 118.219 122.517C118.394 122.393 118.524 122.204 118.626 121.945C118.727 121.693 118.782 121.394 118.792 121.071C118.811 120.588 118.723 120.198 118.524 119.876C118.337 119.575 118.091 119.411 117.781 119.396C117.462 119.384 117.202 119.533 116.982 119.828C116.762 120.131 116.65 120.517 116.632 121.009C116.616 121.514 116.701 121.917 116.89 122.224C117.077 122.527 117.328 122.692 117.637 122.702ZM115.542 127.078L115.584 125.837C116.154 125.817 116.601 125.753 116.947 125.65C117.295 125.546 117.582 125.387 117.804 125.184C118.04 124.987 118.227 124.732 118.383 124.454C118.532 124.175 118.64 123.843 118.707 123.467C118.438 123.715 118.188 123.89 117.944 123.998C117.716 124.096 117.46 124.134 117.185 124.126C116.758 124.114 116.378 123.971 116.038 123.709C115.714 123.44 115.462 123.093 115.295 122.661C115.137 122.226 115.066 121.717 115.086 121.158C115.116 120.216 115.379 119.459 115.863 118.867C116.347 118.271 116.982 117.999 117.783 118.025C118.599 118.054 119.232 118.385 119.675 119.024C120.18 119.769 120.422 120.79 120.373 122.059C120.343 122.93 120.227 123.65 120.025 124.252C119.824 124.856 119.515 125.375 119.11 125.829C118.711 126.284 118.235 126.618 117.702 126.819C117.179 127.019 116.455 127.11 115.542 127.078Z" fill="white"/>
<path fill-rule="evenodd" clip-rule="evenodd" d="M123.788 123.283C123.514 123.501 123.304 123.745 123.18 123.991C123.05 124.244 122.993 124.484 123.001 124.699C123.009 124.882 123.06 125.045 123.156 125.228C123.253 125.393 123.404 125.529 123.601 125.643C123.786 125.737 124.012 125.78 124.266 125.773C124.512 125.765 124.736 125.704 124.923 125.596C125.109 125.495 125.243 125.358 125.318 125.214C125.395 125.07 125.426 124.915 125.418 124.746C125.416 124.524 125.353 124.362 125.247 124.223C125.094 124.018 124.834 123.833 124.474 123.639L123.788 123.283ZM124.484 121.536L124.637 121.271C124.74 121.111 124.807 120.976 124.842 120.887C124.891 120.767 124.923 120.653 124.938 120.543C124.962 120.443 124.966 120.34 124.962 120.234C124.952 120.002 124.864 119.811 124.687 119.636C124.521 119.473 124.283 119.386 123.979 119.396C123.689 119.412 123.473 119.493 123.32 119.668C123.168 119.829 123.09 120.026 123.105 120.246C123.109 120.429 123.158 120.596 123.263 120.72C123.398 120.899 123.63 121.088 123.979 121.267L124.484 121.536ZM125.345 122.051C125.816 122.293 126.183 122.63 126.439 123.064C126.644 123.407 126.76 123.818 126.775 124.321C126.801 125.102 126.62 125.739 126.209 126.249C125.747 126.823 125.121 127.118 124.315 127.145C123.782 127.163 123.312 127.067 122.914 126.845C122.513 126.626 122.218 126.335 122.012 125.977C121.807 125.625 121.697 125.251 121.681 124.864C121.669 124.463 121.766 124.069 121.959 123.7C122.157 123.314 122.47 122.992 122.903 122.73C122.527 122.496 122.232 122.197 122.039 121.827C121.837 121.459 121.73 121.035 121.715 120.578C121.699 120.126 121.776 119.723 121.937 119.353C122.096 118.973 122.366 118.661 122.73 118.419C123.084 118.169 123.503 118.039 123.996 118.023C124.602 118.002 125.125 118.181 125.574 118.539C126.024 118.899 126.258 119.394 126.284 120.045C126.295 120.431 126.236 120.773 126.101 121.103C125.967 121.418 125.715 121.739 125.345 122.051Z" fill="white"/>
<path fill-rule="evenodd" clip-rule="evenodd" d="M130.979 117.522L131.706 124.408C131.738 124.705 131.767 124.884 131.789 124.945C131.826 125.047 131.879 125.106 131.948 125.155C132.027 125.185 132.151 125.195 132.33 125.175L132.947 125.114L133.075 126.337L129.277 126.737L129.146 125.513L129.771 125.445C129.993 125.425 130.135 125.384 130.186 125.338C130.245 125.293 130.284 125.222 130.312 125.128C130.326 125.035 130.326 124.853 130.298 124.559L129.781 119.654L128.546 119.788L128.418 118.561C128.762 118.472 129.031 118.395 129.214 118.319C129.49 118.199 129.777 118.065 130.082 117.89C130.249 117.794 130.406 117.689 130.546 117.571L130.979 117.522Z" fill="white"/>
<path fill-rule="evenodd" clip-rule="evenodd" d="M166.951 118.403L167.645 118.305L167.142 117.156L166.951 118.403ZM166.725 116.029L167.511 115.919L169.036 119.15C169.12 119.323 169.187 119.422 169.24 119.457C169.284 119.493 169.366 119.502 169.488 119.485L169.575 120.09L167.919 120.321L167.832 119.717L167.932 119.705C168.025 119.691 168.088 119.664 168.121 119.624C168.151 119.593 168.166 119.552 168.161 119.508C168.155 119.471 168.129 119.394 168.074 119.284L167.919 118.901L166.857 119.052L166.788 119.512C166.768 119.605 166.768 119.672 166.776 119.705C166.78 119.736 166.792 119.766 166.809 119.79C166.835 119.813 166.872 119.829 166.919 119.833C166.947 119.835 167.03 119.833 167.159 119.813L167.242 120.417L165.885 120.608L165.798 120.004C165.889 119.992 165.948 119.978 165.987 119.951C166.027 119.925 166.05 119.89 166.068 119.847C166.093 119.813 166.113 119.736 166.131 119.632L166.725 116.029Z" fill="white"/>
<path fill-rule="evenodd" clip-rule="evenodd" d="M170.611 118.994C170.737 118.994 170.857 119.051 170.945 119.165C171.04 119.272 171.089 119.415 171.095 119.578C171.095 119.742 171.05 119.881 170.961 119.995C170.876 120.113 170.76 120.172 170.631 120.176C170.499 120.178 170.387 120.123 170.294 120.005C170.2 119.897 170.149 119.754 170.149 119.594C170.145 119.431 170.194 119.287 170.279 119.177C170.365 119.061 170.479 118.998 170.611 118.994Z" fill="white"/>
<path fill-rule="evenodd" clip-rule="evenodd" d="M173.634 116.545L173.302 119.273C173.292 119.363 173.288 119.422 173.292 119.44C173.302 119.475 173.316 119.505 173.343 119.511C173.365 119.53 173.428 119.546 173.526 119.556C173.802 119.587 174.026 119.564 174.193 119.475C174.364 119.393 174.512 119.233 174.632 119.015C174.759 118.793 174.84 118.515 174.881 118.193C174.917 117.88 174.905 117.597 174.848 117.349C174.785 117.099 174.696 116.92 174.575 116.806C174.453 116.69 174.266 116.621 174.02 116.59L173.634 116.545ZM172.437 115.687L174.274 115.911C174.693 115.964 175.015 116.088 175.241 116.285C175.467 116.474 175.639 116.747 175.743 117.091C175.851 117.432 175.877 117.831 175.82 118.287C175.78 118.606 175.709 118.875 175.605 119.121C175.501 119.363 175.359 119.57 175.184 119.753C175.017 119.935 174.84 120.063 174.655 120.144C174.519 120.207 174.331 120.24 174.085 120.264C173.851 120.282 173.662 120.282 173.514 120.268L171.896 120.069L171.97 119.463L172.09 119.479C172.195 119.489 172.262 119.487 172.299 119.473C172.334 119.456 172.36 119.422 172.389 119.371C172.407 119.334 172.423 119.251 172.441 119.115L172.734 116.72C172.751 116.59 172.759 116.497 172.745 116.456C172.734 116.415 172.712 116.387 172.684 116.366C172.657 116.34 172.582 116.317 172.482 116.307L172.358 116.289L172.437 115.687Z" fill="white"/>
<path fill-rule="evenodd" clip-rule="evenodd" d="M177.073 119.793C177.199 119.828 177.293 119.915 177.342 120.052C177.401 120.186 177.409 120.336 177.36 120.489C177.319 120.646 177.234 120.768 177.114 120.847C177 120.935 176.872 120.965 176.75 120.928C176.626 120.89 176.53 120.804 176.477 120.668C176.418 120.536 176.41 120.385 176.459 120.227C176.502 120.074 176.585 119.952 176.707 119.871C176.821 119.781 176.951 119.757 177.073 119.793Z" fill="white"/>
<path fill-rule="evenodd" clip-rule="evenodd" d="M62.338 117.246L65.2348 116.735L65.8817 118.043L65.4647 118.326C65.3508 118.117 65.2267 117.948 65.1006 117.832C64.9724 117.708 64.8442 117.637 64.714 117.618C64.5818 117.592 64.4333 117.592 64.2685 117.62L63.7396 117.716L63.9308 118.804L64.1037 118.774C64.2319 118.753 64.3194 118.725 64.3601 118.694C64.3987 118.666 64.4211 118.621 64.4374 118.564C64.4475 118.511 64.4394 118.41 64.4109 118.253L64.3804 118.088L64.832 118.011L65.1555 119.848L64.7079 119.927L64.6733 119.736C64.6489 119.606 64.6225 119.52 64.5899 119.467C64.5513 119.411 64.5147 119.374 64.4699 119.364C64.4292 119.352 64.3316 119.354 64.1912 119.378L64.0366 119.411L64.2095 120.403C64.2319 120.511 64.2441 120.574 64.2543 120.599C64.2726 120.615 64.2909 120.633 64.3194 120.643C64.3438 120.649 64.3987 120.645 64.474 120.633L64.7669 120.584C64.9846 120.544 65.1636 120.472 65.2999 120.365C65.4342 120.257 65.544 120.116 65.6315 119.915C65.719 119.724 65.7698 119.502 65.7963 119.252L66.2805 119.366L66.1136 121.06L63.1049 121.591L63.0011 120.993L63.0866 120.977C63.2066 120.957 63.2778 120.928 63.3144 120.906C63.351 120.877 63.3693 120.835 63.3816 120.78C63.3816 120.747 63.3693 120.656 63.3449 120.511L62.9259 118.141C62.9055 118.013 62.8852 117.932 62.8628 117.895C62.8384 117.856 62.816 117.832 62.7814 117.82C62.7489 117.803 62.6899 117.801 62.5943 117.82L62.4397 117.844L62.338 117.246Z" fill="white"/>
<path fill-rule="evenodd" clip-rule="evenodd" d="M68.7428 117.877H69.0744L69.2738 118.756L68.7998 118.998C68.7062 118.815 68.5923 118.673 68.456 118.569C68.3177 118.465 68.1814 118.414 68.0471 118.414C67.9576 118.414 67.8905 118.433 67.8498 118.471C67.805 118.504 67.7826 118.551 67.7826 118.602C67.7826 118.644 67.7969 118.685 67.8294 118.724C67.8599 118.762 67.921 118.803 68.0207 118.842L68.7144 119.153C68.8405 119.212 68.9605 119.277 69.0744 119.362C69.1843 119.442 69.2697 119.541 69.3308 119.657C69.3836 119.781 69.4121 119.918 69.4121 120.083C69.4121 120.365 69.3247 120.597 69.1477 120.778C68.9463 120.994 68.6838 121.106 68.3828 121.106C68.1122 121.106 67.8864 121.02 67.6891 120.858L67.6219 121.035H67.2883L66.9771 120.003L67.451 119.749C67.5711 119.981 67.7155 120.164 67.8905 120.294C68.0674 120.432 68.2261 120.496 68.3726 120.496C68.4702 120.496 68.5394 120.469 68.6004 120.416C68.6493 120.369 68.6737 120.327 68.6737 120.268C68.6737 120.217 68.6554 120.168 68.6187 120.123C68.5801 120.087 68.5069 120.034 68.3828 119.977L67.8294 119.743C67.5304 119.605 67.3209 119.47 67.2171 119.314C67.1052 119.165 67.0483 118.994 67.0483 118.781C67.0483 118.514 67.1337 118.294 67.3066 118.115C67.5019 117.91 67.7379 117.804 68.0288 117.804C68.279 117.804 68.4926 117.877 68.6737 118.02L68.7428 117.877Z" fill="white"/>
<path fill-rule="evenodd" clip-rule="evenodd" d="M71.4334 116.946L71.3236 118.022L72.1292 118.103L72.0621 118.775L71.2483 118.691L71.1364 119.788C71.112 120.034 71.1039 120.199 71.1161 120.268C71.1303 120.339 71.167 120.398 71.2198 120.447C71.287 120.514 71.3704 120.549 71.466 120.563C71.645 120.577 71.82 120.526 72.0051 120.402L71.9339 121.078C71.7772 121.149 71.6369 121.196 71.5169 121.218C71.3948 121.236 71.2646 121.244 71.1303 121.226C70.9717 121.21 70.8415 121.171 70.7194 121.114C70.6034 121.047 70.5119 120.966 70.4366 120.868C70.3614 120.768 70.3125 120.665 70.2942 120.563C70.2698 120.453 70.2698 120.303 70.2881 120.103L70.4488 118.61L70.0745 118.565L70.1376 117.961C70.28 117.924 70.4041 117.853 70.5078 117.768C70.6116 117.674 70.7031 117.558 70.7743 117.422C70.8455 117.288 70.9066 117.113 70.9533 116.891L71.4334 116.946Z" fill="white"/>
<path fill-rule="evenodd" clip-rule="evenodd" d="M74.3946 120.864L74.6509 119.843C74.6815 119.717 74.6998 119.623 74.6998 119.571C74.6957 119.485 74.6672 119.416 74.6103 119.341C74.5533 119.265 74.4882 119.217 74.3987 119.194C74.3112 119.172 74.2237 119.182 74.1281 119.233C74.0366 119.278 73.9511 119.363 73.8718 119.489C73.7945 119.611 73.7314 119.776 73.6806 119.977C73.6114 120.258 73.6094 120.498 73.6643 120.694C73.7029 120.844 73.7945 120.94 73.9206 120.972C73.9776 120.984 74.0325 120.986 74.0935 120.972C74.1444 120.966 74.2461 120.925 74.3946 120.864ZM76.0851 117.432L75.1961 120.995C75.1616 121.141 75.1432 121.226 75.1473 121.255C75.1534 121.29 75.1616 121.314 75.1839 121.34C75.1961 121.357 75.2612 121.381 75.3568 121.406L75.4728 121.432L75.3223 122.038L74.2481 121.814L74.3275 121.495C74.1383 121.589 73.9878 121.644 73.8616 121.664C73.7233 121.684 73.6053 121.68 73.4873 121.652C73.3022 121.607 73.1394 121.499 73.0194 121.334C72.8953 121.165 72.8099 120.944 72.7692 120.665C72.7326 120.39 72.7509 120.099 72.8282 119.792C72.9075 119.481 73.0296 119.213 73.1984 118.987C73.3612 118.761 73.5382 118.606 73.7355 118.521C73.9328 118.431 74.1322 118.413 74.3397 118.462C74.4434 118.49 74.5391 118.531 74.6245 118.59C74.714 118.643 74.8076 118.722 74.9032 118.832L75.0863 118.094L74.7262 118.006L74.8706 117.412C75.0761 117.441 75.2511 117.447 75.3935 117.441C75.5277 117.437 75.6803 117.414 75.8471 117.376L76.0851 117.432Z" fill="white"/>
<path d="M161.704 123.118C160.579 118.76 159.562 115.863 158.404 113.721L159.908 112.903C161.138 115.174 162.2 118.191 163.362 122.688L161.704 123.118Z" fill="white"/>
<path fill-rule="evenodd" clip-rule="evenodd" d="M104.396 111.89V107.25H105.335V109.305L107.227 107.25H108.493L106.737 109.061L108.584 111.89H107.37L106.088 109.714L105.335 110.485V111.89H104.396Z" fill="#0D4B8C"/>
<path fill-rule="evenodd" clip-rule="evenodd" d="M110.91 110.286C110.792 110.325 110.617 110.374 110.373 110.422C110.121 110.473 109.964 110.526 109.889 110.579C109.771 110.665 109.714 110.764 109.714 110.888C109.714 111.008 109.755 111.122 109.848 111.21C109.946 111.305 110.06 111.348 110.202 111.348C110.365 111.348 110.517 111.297 110.664 111.193C110.776 111.11 110.839 111.008 110.876 110.894C110.898 110.817 110.91 110.675 110.91 110.459V110.286ZM109.718 109.564L108.912 109.424C109.006 109.094 109.163 108.854 109.382 108.699C109.602 108.533 109.934 108.457 110.373 108.457C110.772 108.457 111.059 108.502 111.256 108.602C111.451 108.693 111.585 108.813 111.667 108.958C111.744 109.098 111.785 109.365 111.785 109.755L111.771 110.793C111.771 111.082 111.785 111.305 111.817 111.44C111.846 111.58 111.897 111.731 111.976 111.891H111.093C111.067 111.834 111.04 111.751 111.008 111.635C110.996 111.58 110.985 111.547 110.975 111.529C110.829 111.678 110.664 111.79 110.493 111.869C110.314 111.938 110.131 111.977 109.94 111.977C109.596 111.977 109.323 111.887 109.122 111.696C108.923 111.511 108.823 111.275 108.823 110.984C108.823 110.793 108.872 110.624 108.959 110.473C109.053 110.325 109.181 110.213 109.344 110.136C109.504 110.052 109.736 109.987 110.048 109.93C110.463 109.853 110.749 109.773 110.91 109.706V109.617C110.91 109.442 110.865 109.32 110.784 109.249C110.699 109.182 110.542 109.137 110.306 109.137C110.145 109.137 110.023 109.169 109.934 109.232C109.848 109.295 109.771 109.411 109.718 109.564Z" fill="#0D4B8C"/>
<path fill-rule="evenodd" clip-rule="evenodd" d="M114.195 108.525V109.233H113.587V110.598C113.587 110.877 113.593 111.037 113.612 111.082C113.612 111.131 113.65 111.168 113.683 111.194C113.724 111.227 113.778 111.239 113.833 111.239C113.921 111.239 114.033 111.21 114.195 111.153L114.267 111.841C114.061 111.931 113.829 111.975 113.571 111.975C113.404 111.975 113.266 111.953 113.132 111.89C113.005 111.841 112.914 111.772 112.857 111.686C112.792 111.599 112.751 111.487 112.729 111.334C112.708 111.231 112.7 111.025 112.7 110.706V109.233H112.293V108.525H112.7V107.862L113.587 107.337V108.525H114.195Z" fill="#0D4B8C"/>
<path fill-rule="evenodd" clip-rule="evenodd" d="M115.696 107.25V108.973C115.987 108.626 116.333 108.459 116.731 108.459C116.937 108.459 117.122 108.495 117.291 108.573C117.454 108.644 117.578 108.743 117.659 108.861C117.744 108.982 117.801 109.114 117.834 109.256C117.869 109.397 117.879 109.616 117.879 109.923V111.891H116.99V110.115C116.99 109.767 116.973 109.543 116.941 109.451C116.91 109.352 116.849 109.283 116.758 109.222C116.676 109.165 116.565 109.136 116.434 109.136C116.286 109.136 116.15 109.181 116.036 109.248C115.916 109.319 115.834 109.423 115.777 109.571C115.724 109.714 115.696 109.929 115.696 110.206V111.891H114.805V107.25H115.696Z" fill="#0D4B8C"/>
<path fill-rule="evenodd" clip-rule="evenodd" d="M118.72 108.525H119.53V108.989C119.823 108.631 120.175 108.458 120.586 108.458C120.797 108.458 120.976 108.503 121.141 108.592C121.298 108.678 121.428 108.814 121.527 108.995C121.678 108.814 121.835 108.678 122.014 108.592C122.176 108.503 122.359 108.458 122.553 108.458C122.801 108.458 123.01 108.511 123.183 108.606C123.35 108.708 123.482 108.853 123.57 109.05C123.625 109.19 123.659 109.424 123.659 109.748V111.89H122.768V109.976C122.768 109.636 122.738 109.424 122.681 109.327C122.593 109.202 122.471 109.135 122.292 109.135C122.17 109.135 122.058 109.18 121.947 109.255C121.835 109.327 121.759 109.434 121.706 109.583C121.66 109.733 121.635 109.963 121.635 110.277V111.89H120.744V110.053C120.744 109.727 120.734 109.514 120.702 109.416C120.667 109.327 120.614 109.255 120.551 109.211C120.486 109.164 120.394 109.135 120.276 109.135C120.142 109.135 120.022 109.18 119.91 109.247C119.798 109.318 119.721 109.43 119.676 109.565C119.631 109.707 119.605 109.935 119.605 110.262V111.89H118.72V108.525Z" fill="#0D4B8C"/>
<path fill-rule="evenodd" clip-rule="evenodd" d="M126.399 110.286C126.283 110.325 126.104 110.374 125.862 110.422C125.61 110.473 125.453 110.526 125.374 110.579C125.256 110.665 125.199 110.764 125.199 110.888C125.199 111.008 125.244 111.122 125.337 111.21C125.435 111.305 125.549 111.348 125.695 111.348C125.856 111.348 126 111.297 126.153 111.193C126.261 111.11 126.328 111.008 126.367 110.894C126.387 110.817 126.399 110.675 126.399 110.459V110.286ZM125.205 109.564L124.404 109.424C124.495 109.094 124.652 108.854 124.871 108.699C125.091 108.533 125.417 108.457 125.862 108.457C126.257 108.457 126.548 108.502 126.743 108.602C126.936 108.693 127.075 108.813 127.158 108.958C127.237 109.098 127.274 109.365 127.274 109.755L127.26 110.793C127.26 111.082 127.274 111.305 127.307 111.44C127.333 111.58 127.384 111.731 127.461 111.891H126.582C126.556 111.834 126.527 111.751 126.501 111.635C126.481 111.58 126.47 111.547 126.466 111.529C126.316 111.678 126.153 111.79 125.978 111.869C125.803 111.938 125.62 111.977 125.427 111.977C125.083 111.977 124.812 111.887 124.611 111.696C124.406 111.511 124.312 111.275 124.312 110.984C124.312 110.793 124.359 110.624 124.446 110.473C124.536 110.325 124.67 110.213 124.831 110.136C124.991 110.052 125.225 109.987 125.535 109.93C125.952 109.853 126.236 109.773 126.399 109.706V109.617C126.399 109.442 126.354 109.32 126.269 109.249C126.184 109.182 126.029 109.137 125.795 109.137C125.634 109.137 125.512 109.169 125.417 109.232C125.337 109.295 125.256 109.411 125.205 109.564Z" fill="#0D4B8C"/>
<path fill-rule="evenodd" clip-rule="evenodd" d="M131.21 111.89H130.324V110.182C130.324 109.822 130.301 109.579 130.265 109.474C130.224 109.372 130.165 109.284 130.077 109.23C129.988 109.171 129.886 109.136 129.76 109.136C129.605 109.136 129.469 109.185 129.351 109.266C129.223 109.352 129.14 109.463 129.097 109.598C129.052 109.744 129.024 109.992 129.024 110.373V111.89H128.139V108.526H128.959V109.02C129.251 108.644 129.626 108.459 130.077 108.459C130.271 108.459 130.454 108.491 130.614 108.562C130.775 108.631 130.897 108.723 130.979 108.835C131.066 108.943 131.127 109.065 131.156 109.211C131.188 109.345 131.21 109.545 131.21 109.805V111.89Z" fill="#0D4B8C"/>
<path fill-rule="evenodd" clip-rule="evenodd" d="M132.822 110.142C132.822 110.509 132.873 110.765 132.971 110.928C133.117 111.164 133.319 111.277 133.569 111.277C133.774 111.277 133.949 111.194 134.094 111.019C134.236 110.842 134.309 110.578 134.309 110.232C134.309 109.843 134.236 109.565 134.102 109.394C133.96 109.223 133.783 109.135 133.569 109.135C133.353 109.135 133.182 109.223 133.038 109.394C132.894 109.561 132.822 109.815 132.822 110.142ZM135.196 111.89H134.375V111.402C134.236 111.589 134.075 111.737 133.886 111.839C133.701 111.93 133.51 111.975 133.319 111.975C132.932 111.975 132.601 111.821 132.326 111.509C132.047 111.198 131.909 110.765 131.909 110.205C131.909 109.632 132.047 109.202 132.31 108.905C132.582 108.606 132.922 108.458 133.329 108.458C133.703 108.458 134.035 108.61 134.309 108.924V107.25H135.196V111.89Z" fill="#0D4B8C"/>
<path fill-rule="evenodd" clip-rule="evenodd" d="M138.295 111.89V111.386C138.169 111.567 138.013 111.711 137.811 111.813C137.618 111.925 137.4 111.976 137.179 111.976C136.953 111.976 136.751 111.927 136.57 111.827C136.391 111.73 136.259 111.589 136.182 111.41C136.096 111.231 136.058 110.977 136.058 110.664V108.526H136.947V110.078C136.947 110.552 136.963 110.843 136.998 110.947C137.032 111.056 137.087 111.144 137.175 111.207C137.264 111.264 137.372 111.298 137.506 111.298C137.661 111.298 137.795 111.258 137.915 111.172C138.039 111.089 138.12 110.985 138.167 110.863C138.21 110.739 138.232 110.436 138.232 109.948V108.526H139.119V111.89H138.295Z" fill="#0D4B8C"/>
<path d="M44.4134 210.345V211.477C44.4134 212.301 44.6046 213.067 45.602 213.067C46.4083 213.067 46.8302 212.55 46.8302 211.878C46.8302 210.536 45.4306 209.635 44.03 208.619C42.6106 207.449 41.1931 206.605 41.1931 204.267C41.1931 201.256 42.8791 199.973 45.699 199.973C48.7667 199.973 50.108 201.467 50.108 203.826V205.206H46.8105V204.383C46.8105 203.615 46.6956 202.694 45.699 202.694C44.9521 202.694 44.4897 203.136 44.4897 203.847C44.4897 204.764 45.9873 205.819 47.4246 206.894C48.7281 208.045 50.3576 208.792 50.3576 211.878C50.3576 213.356 49.2452 215.791 45.5644 215.791C42.0737 215.791 41 213.586 41 211.992V210.345H44.4134Z" fill="white"/>
<path d="M51.7943 200.221H59.6364V203.173H55.3226V206.223H59.0995V209.176H55.3226V212.59H59.8088V215.54H51.7943V200.221Z" fill="white"/>
<path d="M61.3805 204.4C61.3805 201.41 63.2972 199.972 65.9241 199.972C68.5501 199.972 70.4687 201.41 70.4687 204.4V205.819H66.9404V204.095C66.9404 203.575 66.9404 202.693 65.9241 202.693C64.9078 202.693 64.9078 203.575 64.9078 204.095V211.668C64.9078 212.071 64.9078 213.066 65.9241 213.066C66.9404 213.066 66.9404 212.071 66.9404 211.668V209.425H70.4687V211.361C70.4687 214.084 68.7243 215.79 65.9241 215.79C63.1249 215.79 61.3805 214.084 61.3805 211.361V204.4Z" fill="white"/>
<path d="M75.5677 211.668C75.5677 212.071 75.5677 213.067 76.5821 213.067C77.6002 213.067 77.6002 212.071 77.6002 211.668V204.094C77.6002 203.575 77.6002 202.694 76.5821 202.694C75.5677 202.694 75.5677 203.575 75.5677 204.094V211.668ZM72.0394 204.4C72.0394 201.41 73.957 199.973 76.5821 199.973C79.2099 199.973 81.1276 201.41 81.1276 204.4V211.361C81.1276 214.084 79.3823 215.791 76.5821 215.791C73.7856 215.791 72.0394 214.084 72.0394 211.361V204.4Z" fill="white"/>
<path d="M82.6985 200.221H86.5527L89.3887 209.253H89.4292V200.221H92.8398V215.54H89.0082L86.1505 206.069H86.111V215.54H82.6985V200.221Z" fill="white"/>
<path d="M97.9392 212.933H98.4968C99.4368 212.933 99.9718 212.531 99.9718 211.629V204.132C99.9718 203.232 99.4368 202.828 98.4968 202.828H97.9392V212.933ZM94.4119 200.221H99.6647C102.676 200.221 103.501 201.966 103.501 204.324V211.61C103.501 214.41 101.525 215.54 99.6647 215.54H94.4119V200.221Z" fill="white"/>
<path d="M108.675 210.096H110.439L109.615 202.599H109.578L108.675 210.096ZM107.257 200.22H111.936L114.812 215.54H111.11L110.786 212.819H108.311L107.947 215.54H104.42L107.257 200.22Z" fill="white"/>
<path d="M119.258 206.317H120.121C121.328 206.317 121.328 205.514 121.328 204.515C121.328 203.443 121.328 202.828 119.949 202.828H119.258V206.317ZM115.729 200.221H120.39C123.534 200.221 124.858 201.16 124.858 203.92C124.858 205.724 124.607 206.894 122.728 207.468V207.507C123.976 207.757 124.781 208.657 124.781 209.942V212.647C124.781 213.662 124.742 215.044 125.144 215.54H121.655C121.253 215.044 121.253 213.662 121.253 212.647V210.191C121.253 209.311 120.907 208.926 119.91 208.926H119.258V215.54H115.729V200.221Z" fill="white"/>
<path d="M125.411 200.221H129.056L130.032 205.397H130.07L131.107 200.221H134.691L131.814 209.233V215.54H128.288V209.482L125.411 200.221Z" fill="white"/>
<path d="M143.702 210.345V211.477C143.702 212.301 143.893 213.067 144.891 213.067C145.695 213.067 146.118 212.55 146.118 211.878C146.118 210.536 144.718 209.635 143.319 208.619C141.899 207.449 140.481 206.605 140.481 204.267C140.481 201.256 142.166 199.973 144.986 199.973C148.053 199.973 149.397 201.467 149.397 203.826V205.206H146.099V204.383C146.099 203.615 145.983 202.694 144.986 202.694C144.239 202.694 143.778 203.136 143.778 203.847C143.778 204.764 145.274 205.819 146.713 206.894C148.016 208.045 149.644 208.792 149.644 211.878C149.644 213.356 148.534 215.791 144.853 215.791C141.362 215.791 140.289 213.586 140.289 211.992V210.345H143.702Z" fill="white"/>
<path d="M151.082 204.4C151.082 201.41 153 199.972 155.627 199.972C158.253 199.972 160.17 201.41 160.17 204.4V205.819H156.642V204.095C156.642 203.575 156.642 202.693 155.627 202.693C154.609 202.693 154.609 203.575 154.609 204.095V211.668C154.609 212.071 154.609 213.066 155.627 213.066C156.642 213.066 156.642 212.071 156.642 211.668V209.425H160.17V211.361C160.17 214.084 158.426 215.79 155.627 215.79C152.826 215.79 151.082 214.084 151.082 211.361V204.4Z" fill="white"/>
<path d="M161.741 200.221H165.269V205.953H167.302V200.221H170.829V215.54H167.302V209.023H165.269V215.54H161.741V200.221Z" fill="white"/>
<path d="M175.928 211.668C175.928 212.071 175.928 213.067 176.946 213.067C177.96 213.067 177.96 212.071 177.96 211.668V204.094C177.96 203.575 177.96 202.694 176.946 202.694C175.928 202.694 175.928 203.575 175.928 204.094V211.668ZM172.401 204.4C172.401 201.41 174.318 199.973 176.946 199.973C179.57 199.973 181.49 201.41 181.49 204.4V211.361C181.49 214.084 179.744 215.791 176.946 215.791C174.146 215.791 172.401 214.084 172.401 211.361V204.4Z" fill="white"/>
<path d="M186.588 211.668C186.588 212.071 186.588 213.067 187.604 213.067C188.619 213.067 188.619 212.071 188.619 211.668V204.094C188.619 203.575 188.619 202.694 187.604 202.694C186.588 202.694 186.588 203.575 186.588 204.094V211.668ZM183.06 204.4C183.06 201.41 184.977 199.973 187.604 199.973C190.23 199.973 192.148 201.41 192.148 204.4V211.361C192.148 214.084 190.404 215.791 187.604 215.791C184.804 215.791 183.06 214.084 183.06 211.361V204.4Z" fill="white"/>
<path d="M193.718 200.221H197.246V212.59H201.081V215.54H193.718V200.221Z" fill="white"/>
<path d="M47.5521 191.906H48.8962C51.0531 191.906 51.3017 190.845 51.3017 188.052C51.3017 186.106 51.0531 184.232 49.0374 184.232H47.5521V191.906ZM47.5521 179.636H48.7549C50.8063 179.636 51.0173 178.116 51.0173 176.345C51.0173 174.366 50.5944 173.268 49.0017 173.268H47.5521V179.636ZM41.0456 168.459H50.0622C54.8027 168.459 57.1009 170.262 57.1009 175.107C57.1009 178.079 56.677 180.694 53.5274 181.758V181.828C56.7128 182.393 57.8082 184.762 57.8082 188.336C57.8082 193.073 56.0742 196.715 50.276 196.715H41.0456V168.459Z" fill="white"/>
<path d="M60.9219 168.459H67.4284V196.715H60.9219V168.459Z" fill="white"/>
<path d="M85.3238 189.678C85.3238 194.877 82.6696 197.175 77.4714 197.175C74.2181 197.175 69.9391 196.115 69.9391 189.678V185.542H76.2328V190.351C76.2328 191.234 76.3044 192.154 77.4714 192.154C78.142 192.154 78.8154 191.729 78.8154 190.315V168.459H85.3238V189.678Z" fill="white"/>
<path d="M88.2227 168.459H102.688V173.906H94.7301V179.529H101.697V184.973H94.7301V191.269H103.005V196.715H88.2227V168.459Z" fill="white"/>
<path d="M111.954 187.133V189.219C111.954 190.739 112.308 192.154 114.147 192.154C115.631 192.154 116.411 191.198 116.411 189.961C116.411 187.486 113.827 185.823 111.247 183.949C108.629 181.793 106.013 180.235 106.013 175.921C106.013 170.367 109.124 168 114.323 168C119.981 168 122.457 170.757 122.457 175.108V177.655H116.374V176.135C116.374 174.72 116.162 173.022 114.323 173.022C112.943 173.022 112.095 173.834 112.095 175.144C112.095 176.841 114.854 178.785 117.506 180.766C119.91 182.888 122.917 184.268 122.917 189.961C122.917 192.684 120.866 197.175 114.076 197.175C107.64 197.175 105.659 193.108 105.659 190.174V187.133H111.954Z" fill="white"/>
<path d="M124.65 168.459H131.335L133.633 188.546H133.703L135.79 168.459H142.119L144.1 188.546H144.172L146.506 168.459H153.047L148.098 196.715H140.848L138.938 179.316H138.867L136.71 196.715H129.46L124.65 168.459Z" fill="white"/>
<path d="M161.535 189.573C161.535 190.315 161.535 192.155 163.41 192.155C165.285 192.155 165.285 190.315 165.285 189.573V175.603C165.285 174.649 165.285 173.022 163.41 173.022C161.535 173.022 161.535 174.649 161.535 175.603V189.573ZM155.03 176.168C155.03 170.65 158.565 168 163.41 168C168.256 168 171.793 170.65 171.793 176.168V189.005C171.793 194.028 168.574 197.176 163.41 197.176C158.248 197.176 155.03 194.028 155.03 189.005V176.168Z" fill="white"/>
<path d="M181.199 179.706H182.79C185.02 179.706 185.02 178.221 185.02 176.38C185.02 174.401 185.02 173.268 182.475 173.268H181.199V179.706ZM174.693 168.459H183.286C189.087 168.459 191.527 170.191 191.527 175.285C191.527 178.609 191.067 180.766 187.599 181.827V181.9C189.901 182.358 191.383 184.02 191.383 186.388V191.375C191.383 193.249 191.314 195.796 192.056 196.715H185.62C184.878 195.796 184.878 193.249 184.878 191.375V186.848C184.878 185.223 184.242 184.514 182.402 184.514H181.199V196.715H174.693V168.459Z" fill="white"/>
<path d="M194.567 168.459H201.076V196.715H194.567V168.459Z" fill="white"/>
</svg>
